#tb 0: 1/1200000
0,          0,          0,    48000,    38016, 0xb9ac19bd
0,          1,          1,    48000,    38016, 0x53c91566
0,          2,          2,    48000,    38016, 0xb5bd089f
0,          3,          3,    48000,    38016, 0xb81320bb
0,          4,          4,    48000,    38016, 0x7c793dce
0,          5,          5,    48000,    38016, 0x3d605b31
0,          6,          6,    48000,    38016, 0x40216830
0,          7,          7,    48000,    38016, 0x11c48f52
0,          8,          8,    48000,    38016, 0x0f37a013
0,          9,          9,    48000,    38016, 0xb06cb753
0,         10,         10,    48000,    38016, 0x6233ca83
0,         11,         11,    48000,    38016, 0x02b6d5a1
0,         12,         12,    48000,    38016, 0xf76cc409
0,         13,         13,    48000,    38016, 0xd19fa5c3
0,         14,         14,    48000,    38016, 0x8d1c8a02
0,         15,         15,    48000,    38016, 0x6802966d
0,         16,         16,    48000,    38016, 0x107fb055
